<svg width="235" height="235" viewBox="0 0 235 235" fill="none" xmlns="http://www.w3.org/2000/svg">
<path d="M190.555 93.2803L157.998 80.0649C151.584 77.4616 149.029 69.59 152.476 63.588C161.07 48.6281 172.738 27.1673 176.546 22.7734C176.699 20.9171 177.55 17.6191 179.652 14.3468C182.261 10.2853 187.777 12.1803 189.332 16.7504C192.658 16.2566 196.373 16.472 200.184 18.0995C205.068 20.1856 208.792 22.6138 211.409 25.7118L214.121 24.2659C217.708 22.3538 222.167 23.7454 221.717 27.7854C221.358 31.0137 219.831 35.0531 216.015 39.5329C215.802 46.9988 209.808 69.7315 205.728 85.5613C204.03 92.1458 196.855 95.8378 190.555 93.2803Z" fill="white"/>
<path d="M191.003 43.5819C189.806 42.5445 187.2 41.8922 186.047 41.6957C186.294 42.9664 186.784 45.3251 187.384 45.5457C188.202 45.8466 189.995 44.2492 191.003 43.5819Z" fill="#050314"/>
<path d="M196.833 46.1683C195.637 45.1309 192.764 43.9395 191.611 43.7431C191.858 45.0137 191.974 47.6859 192.533 47.9966C193.16 48.345 195.826 46.8356 196.833 46.1683Z" fill="#050314"/>
<path d="M176.992 51.5016C176.862 53.6369 181.308 52.9459 182.475 53.0085C182.082 51.7777 181.933 49.2874 181.207 48.9925C180.543 48.723 177.914 50.725 176.992 51.5016Z" fill="#050314"/>
<path d="M196.415 55.6984C197.142 55.9933 196.876 58.0251 196.971 59.1421C196.466 60.3868 195.333 60.2434 193.924 58.8899C193.338 58.3269 193.173 58.116 192.327 57.382C193.68 56.6341 195.779 55.4401 196.415 55.6984Z" fill="#050314"/>
<path d="M183.367 53.089C185.267 53.0008 187.178 53.7762 187.178 53.7762C187.083 52.6592 186.601 51.7605 186.265 51.6239C185.628 51.3656 184.556 52.3213 183.367 53.089Z" fill="#050314"/>
<path d="M191.838 56.8868C190.481 55.2889 188.593 54.3818 188.593 54.3818C189.288 53.5025 190.147 53.2723 190.503 53.344C191.176 53.4795 191.467 55.4857 191.838 56.8868Z" fill="#050314"/>
<path d="M188.801 30.9661C187.006 32.4309 184.654 32.2991 183.515 30.903C182.375 29.507 182.718 27.1761 184.513 25.7112C186.307 24.2464 188.66 24.3782 189.799 25.7743C190.938 27.1704 190.596 29.5013 188.801 30.9661Z" fill="#050314" stroke="#050314"/>
<path d="M206.396 35.6452C206.41 37.9619 204.831 39.7105 203.029 39.7214C201.227 39.7323 199.627 38.0029 199.613 35.6862C199.599 33.3695 201.178 31.6209 202.98 31.61C204.782 31.5991 206.382 33.3285 206.396 35.6452Z" fill="#050314" stroke="#050314"/>
<path d="M123.422 152.373L79.0446 177.994C73.0502 181.455 65.2954 178.629 62.7052 172.21C54.5421 151.98 40.9127 120.952 39.412 113.359C37.4567 111.559 34.3583 107.443 32.8476 101.858C31.5211 96.9538 36.6739 93.6519 41.4741 95.3158L43.3281 95.9584C45.4153 92.2637 48.5095 88.7323 53.0846 86.1998C58.9487 82.9538 64.2537 81.1284 69.367 80.9249L70.3498 75.2625C71.045 71.2574 74.8239 68.5206 78.018 71.0347C81.4214 73.7136 84.9581 78.6231 86.6992 87.0546C94.3794 93.3949 114.027 119.377 126.639 135.685C130.798 141.064 129.31 148.973 123.422 152.373Z" fill="white"/>
<path d="M71.3381 115.098C69.3776 115.485 66.7079 117.574 65.6182 118.57C67.0748 119.309 69.8031 120.65 70.488 120.223C71.422 119.642 71.2214 116.618 71.3381 115.098Z" fill="#050314"/>
<path d="M78.4339 111.298C76.4734 111.685 73.0599 113.621 71.9701 114.617C73.4268 115.357 76.1777 117.312 76.9203 116.997C77.753 116.643 78.3172 112.818 78.4339 111.298Z" fill="#050314"/>
<path d="M68.3614 135.187C70.3863 136.973 73.1456 132.01 74.113 130.896C72.5827 130.333 69.9877 128.551 69.1309 129.045C68.3477 129.498 68.3031 133.667 68.3614 135.187Z" fill="#050314"/>
<path d="M87.5997 119.102C88.4565 118.607 90.2735 120.447 91.4593 121.219C92.3069 122.687 91.286 123.703 88.8459 124.057C87.8308 124.204 87.4928 124.205 86.1062 124.478C86.4108 122.551 86.8489 119.535 87.5997 119.102Z" fill="#050314"/>
<path d="M74.8852 130.07C76.2707 128.11 78.5237 126.809 78.5237 126.809C77.3379 126.038 76.07 125.82 75.6733 126.049C74.9225 126.483 75.0427 128.291 74.8852 130.07Z" fill="#050314"/>
<path d="M85.2344 124.58C82.5913 124.693 80.2243 125.869 80.2243 125.869C79.8872 124.496 80.3246 123.462 80.6717 123.163C81.3286 122.598 83.5514 123.864 85.2344 124.58Z" fill="#050314"/>
<path d="M57.2027 107.505C57.2708 110.48 55.2776 112.8 52.9134 112.854C50.5491 112.908 48.4519 110.682 48.3838 107.707C48.3157 104.732 50.3089 102.413 52.6731 102.358C55.0374 102.304 57.1346 104.53 57.2027 107.505Z" fill="#050314" stroke="#050314"/>
<path d="M75.4509 93.5138C77.8098 95.3279 78.3647 98.3353 76.923 100.21C75.4814 102.085 72.4323 102.321 70.0734 100.506C67.7145 98.6924 67.1596 95.685 68.6012 93.8103C70.0429 91.9357 73.0919 91.6998 75.4509 93.5138Z" fill="#050314" stroke="#050314"/>
<path d="M161.461 226.197L152.978 226.197C146.057 226.197 140.65 219.845 141.538 212.98C142.664 204.284 143.853 194.709 144.717 192.172C144.402 191.165 144.146 189.253 144.552 187.087C145.056 184.4 148.355 184.219 150.145 186.287C151.786 185.319 153.782 184.64 156.129 184.683C159.137 184.737 161.609 185.218 163.643 186.287C165.754 183.757 169.517 183.606 169.802 186.889C169.936 188.427 169.75 190.312 169.005 192.56C170.203 195.771 171.544 205.045 172.664 213.331C173.576 220.069 168.261 226.197 161.461 226.197Z" fill="white"/>
<path d="M156.739 200.015C155.89 199.725 154.383 199.938 153.736 200.081C154.136 200.695 154.896 201.829 155.258 201.817C155.751 201.8 156.352 200.58 156.739 200.015Z" fill="#050314"/>
<path d="M160.35 200.13C159.501 199.84 157.739 199.827 157.092 199.97C157.493 200.584 158.123 201.962 158.483 202.006C158.886 202.055 159.964 200.695 160.35 200.13Z" fill="#050314"/>
<path d="M151.072 207.157C151.458 208.306 153.645 206.996 154.271 206.78C153.803 206.217 153.194 204.942 152.75 204.942C152.344 204.942 151.391 206.553 151.072 207.157Z" fill="#050314"/>
<path d="M162.162 205.222C162.606 205.222 162.899 206.345 163.187 206.911C163.187 207.672 162.562 207.838 161.534 207.428C161.107 207.257 160.975 207.181 160.375 206.976C160.926 206.295 161.773 205.222 162.162 205.222Z" fill="#050314"/>
<path d="M154.757 206.632C155.736 206.181 156.904 206.181 156.904 206.181C156.616 205.615 156.172 205.246 155.966 205.246C155.577 205.246 155.218 205.976 154.757 206.632Z" fill="#050314"/>
<path d="M160.013 206.821C158.96 206.271 157.775 206.197 157.775 206.197C157.953 205.588 158.355 205.284 158.557 205.245C158.939 205.173 159.519 206.164 160.013 206.821Z" fill="#050314"/>
<path d="M152.706 193.758C152.118 194.833 150.976 195.183 150.212 194.765C149.449 194.347 149.127 193.197 149.716 192.121C150.304 191.046 151.446 190.697 152.21 191.114C152.973 191.532 153.295 192.682 152.706 193.758Z" fill="#050314" stroke="#050314"/>
<path d="M162.928 192.652C163.396 193.785 162.951 194.894 162.147 195.226C161.342 195.558 160.245 195.086 159.777 193.953C159.309 192.82 159.754 191.711 160.558 191.379C161.363 191.047 162.46 191.519 162.928 192.652Z" fill="#050314" stroke="#050314"/>
</svg>
