<svg width="288" height="513" viewBox="0 0 288 513" fill="none" xmlns="http://www.w3.org/2000/svg">
<path d="M199.341 233.08L86.2139 187.16C79.8004 184.557 77.301 176.749 80.8538 170.809C101.334 136.566 137.788 68.3083 148.497 55.9525C149.023 49.5718 152.965 36.1362 164.175 25.8696C167.922 22.4384 173.62 24.528 175.256 29.3376L179.364 41.4119C187.394 40.2197 196.362 40.7396 205.562 44.6688C217.354 49.7051 226.345 55.5672 232.662 63.0462L248.112 54.8104C251.699 52.8983 256.201 54.0527 257.09 58.0192C258.978 66.4447 257.558 80.24 243.782 96.413C243.18 117.508 223.46 189.09 214.406 225.352C212.759 231.95 205.642 235.637 199.341 233.08Z" fill="white"/>
<path d="M183.397 106.188C180.508 103.684 174.218 102.109 171.433 101.635C172.03 104.702 173.212 110.397 174.661 110.929C176.637 111.655 180.965 107.799 183.397 106.188Z" fill="#050314"/>
<path d="M197.474 112.432C194.586 109.927 187.65 107.051 184.866 106.577C185.462 109.644 185.744 116.096 187.093 116.846C188.605 117.687 195.042 114.043 197.474 112.432Z" fill="#050314"/>
<path d="M149.576 125.307C149.261 130.462 159.995 128.794 162.814 128.945C161.864 125.974 161.505 119.962 159.751 119.25C158.148 118.599 151.802 123.432 149.576 125.307Z" fill="#050314"/>
<path d="M196.466 135.44C198.219 136.152 197.578 141.057 197.807 143.753C196.588 146.758 193.853 146.412 190.451 143.145C189.036 141.785 188.637 141.276 186.595 139.504C189.863 137.698 194.929 134.816 196.466 135.44Z" fill="#050314"/>
<path d="M164.966 129.14C169.554 128.927 174.166 130.799 174.166 130.799C173.936 128.102 172.774 125.932 171.963 125.603C170.426 124.979 167.837 127.286 164.966 129.14Z" fill="#050314"/>
<path d="M185.416 138.308C182.14 134.451 177.582 132.261 177.582 132.261C179.258 130.138 181.334 129.582 182.193 129.755C183.818 130.083 184.519 134.926 185.416 138.308Z" fill="#050314"/>
<path d="M178.531 76.2793C173.979 79.9939 167.835 79.7771 164.774 76.0263C161.713 72.2756 162.732 66.212 167.283 62.4974C171.835 58.7828 177.98 58.9997 181.041 62.7505C184.102 66.5012 183.083 72.5647 178.531 76.2793Z" fill="#050314" stroke="#050314"/>
<path d="M221.268 87.0232C221.304 92.8981 217.279 97.546 212.437 97.5752C207.596 97.6045 203.515 93.0056 203.48 87.1307C203.444 81.2559 207.469 76.608 212.31 76.5787C217.152 76.5495 221.233 81.1484 221.268 87.0232Z" fill="#050314" stroke="#050314"/>
<path d="M137.457 358.011L77.6863 380.88C71.2216 383.353 64.025 379.344 62.4986 372.592C56.9287 347.956 46.3639 307.776 46.0213 298.505C43.9514 295.886 40.846 289.92 40.4545 282.464C40.1881 277.39 45.7955 274.973 50.2737 277.372L53.7156 279.216C56.7933 275.351 60.9989 271.858 66.7239 269.785C74.0621 267.128 80.4968 266.002 86.4135 266.706L88.9622 259.266C90.2796 255.421 94.4194 253.276 97.3556 256.087C101.077 259.649 104.727 266.124 105.218 276.933C113.118 285.895 131.796 321.152 143.245 342.045C146.513 348.009 143.808 355.582 137.457 358.011Z" fill="white"/>
<path d="M82.4129 306.361C80.0876 306.446 76.6348 308.358 75.1991 309.304C76.7384 310.421 79.6295 312.463 80.4953 312.098C81.6759 311.601 81.9998 308.088 82.4129 306.361Z" fill="#050314"/>
<path d="M91.2694 303.292C88.9441 303.378 84.6639 304.979 83.2282 305.924C84.7675 307.041 87.572 309.794 88.4837 309.568C89.5061 309.314 90.8563 305.019 91.2694 303.292Z" fill="#050314"/>
<path d="M75.3052 328.914C77.3062 331.338 81.3891 326.138 82.7058 325.034C81.0494 324.107 78.3925 321.581 77.3166 321.993C76.3331 322.369 75.517 327.155 75.3052 328.914Z" fill="#050314"/>
<path d="M100.376 313.948C101.451 313.536 103.203 315.985 104.425 317.089C105.131 318.933 103.77 319.915 100.9 319.874C99.7055 319.857 99.3167 319.796 97.6722 319.855C98.376 317.695 99.4328 314.309 100.376 313.948Z" fill="#050314"/>
<path d="M83.7449 324.227C85.6976 322.227 88.5268 321.145 88.5268 321.145C87.3048 320.04 85.8868 319.557 85.3887 319.748C84.4459 320.109 84.2524 322.21 83.7449 324.227Z" fill="#050314"/>
<path d="M96.6514 319.813C93.5917 319.457 90.6542 320.376 90.6542 320.376C90.5184 318.736 91.2111 317.626 91.6649 317.347C92.5239 316.817 94.8476 318.681 96.6514 319.813Z" fill="#050314"/>
<path d="M67.6319 295.049C67.1601 298.515 64.4113 300.862 61.6263 300.483C58.8413 300.103 56.8199 297.107 57.2917 293.641C57.7635 290.176 60.5123 287.829 63.2973 288.208C66.0823 288.587 68.1037 291.583 67.6319 295.049Z" fill="#050314" stroke="#050314"/>
<path d="M91.1602 282.24C93.5623 284.783 93.6644 288.396 91.6215 290.326C89.5785 292.256 85.9771 291.95 83.5749 289.407C81.1728 286.865 81.0707 283.252 83.1136 281.322C85.1566 279.391 88.758 279.698 91.1602 282.24Z" fill="#050314" stroke="#050314"/>
<path d="M184.411 498.888L148.846 497.34C141.931 497.039 136.883 490.482 138.119 483.671C141.222 466.563 145.054 442.167 147.187 436.699C146.705 434.886 146.398 431.468 147.287 427.652C148.39 422.915 154.266 422.849 157.286 426.661C160.276 425.068 163.875 424.017 168.042 424.274C173.383 424.603 177.738 425.649 181.269 427.705L183.39 425.376C186.128 422.372 190.795 422.183 191.741 426.136C192.505 429.326 192.431 433.694 190.312 439.266C192.638 446.438 194.635 470.121 196.114 486.528C196.724 493.3 191.204 499.183 184.411 498.888Z" fill="white"/>
<path d="M167.941 451.563C166.455 450.983 163.761 451.244 162.6 451.448C163.264 452.57 164.527 454.643 165.171 454.65C166.049 454.659 167.211 452.537 167.941 451.563Z" fill="#050314"/>
<path d="M174.35 452.047C172.864 451.467 169.734 451.307 168.573 451.51C169.237 452.633 170.251 455.129 170.886 455.236C171.599 455.354 173.619 453.021 174.35 452.047Z" fill="#050314"/>
<path d="M157.32 463.814C157.918 465.885 161.905 463.726 163.034 463.391C162.245 462.356 161.262 460.043 160.473 460.008C159.751 459.977 157.933 462.765 157.32 463.814Z" fill="#050314"/>
<path d="M177.174 461.233C177.963 461.268 178.397 463.286 178.865 464.314C178.806 465.666 177.683 465.913 175.888 465.104C175.141 464.768 174.913 464.624 173.862 464.213C174.894 463.046 176.482 461.203 177.174 461.233Z" fill="#050314"/>
<path d="M163.908 463.167C165.682 462.44 167.757 462.531 167.757 462.531C167.289 461.503 166.529 460.812 166.163 460.796C165.472 460.766 164.777 462.036 163.908 463.167Z" fill="#050314"/>
<path d="M173.232 463.908C171.404 462.85 169.305 462.627 169.305 462.627C169.667 461.558 170.405 461.049 170.767 460.997C171.452 460.898 172.405 462.704 173.232 463.908Z" fill="#050314"/>
<path d="M161.591 440.335C160.382 442.333 158.102 443.004 156.547 442.063C154.991 441.122 154.529 438.791 155.738 436.793C156.947 434.795 159.226 434.124 160.782 435.065C162.337 436.006 162.8 438.337 161.591 440.335Z" fill="#050314" stroke="#050314"/>
<path d="M179.872 438.826C180.669 441.021 179.761 443.217 178.052 443.837C176.343 444.457 174.239 443.355 173.442 441.16C172.645 438.964 173.553 436.768 175.262 436.148C176.971 435.528 179.076 436.63 179.872 438.826Z" fill="#050314" stroke="#050314"/>
</svg>
