<svg width="755" height="188" viewBox="0 0 755 188" fill="none" xmlns="http://www.w3.org/2000/svg">
<path d="M14.1539 143.787C37.6453 213.587 170.53 133.975 208.583 120.852C180.103 86.6833 143.107 9.1716 116.117 9.1716C91.4426 9.1716 33.5159 107.07 14.1539 143.787Z" fill="white"/>
<path d="M688.066 26.1761C715.057 26.1761 732.891 94.4278 750.385 128.829C750.385 175.077 712.398 185.168 649.921 160.24C623.931 149.869 615.934 145.282 579.447 132.818C612.935 91.4363 664.416 26.1761 688.066 26.1761Z" fill="white"/>
<path d="M238.072 111.878C297.55 84.4564 368.524 84.4564 368.524 84.4564C351.031 50.0547 324.04 27.619 311.545 27.6189C287.895 27.6189 266.062 71.992 238.072 111.878Z" fill="white"/>
<path d="M557.455 123.345C493.478 89.9405 421.505 85.4534 421.505 85.4534C432.268 48.4154 456.714 29.9389 468.987 27.6187C492.217 23.2273 527.466 83.4591 557.455 123.345Z" fill="white"/>
</svg>
